<?xml version="1.0" standalone="no"?>
<!DOCTYPE svg PUBLIC "-//W3C//DTD SVG 20010904//EN"
 "http://www.w3.org/TR/2001/REC-SVG-20010904/DTD/svg10.dtd">
<svg version="1.0" xmlns="http://www.w3.org/2000/svg"
 width="700.000000pt" height="700.000000pt" viewBox="0 0 700.000000 700.000000"
 preserveAspectRatio="xMidYMid meet">
<metadata>
Created by potrace 1.14, written by Peter Selinger 2001-2017
</metadata>
<g transform="translate(0.000000,700.000000) scale(0.100000,-0.100000)"
fill="#000000" stroke="none">
<path d="M1270 6740 c-155 -13 -269 -45 -410 -115 -303 -152 -521 -441 -585
-778 -13 -69 -15 -365 -15 -2347 0 -1982 2 -2278 15 -2347 86 -454 440 -800
905 -884 111 -21 4529 -21 4640 0 465 84 819 430 905 884 13 69 15 365 15
2351 0 2185 -1 2274 -19 2362 -88 426 -417 756 -855 857 -91 21 -92 21 -2296
23 -1213 1 -2248 -2 -2300 -6z m4621 -81 c399 -111 670 -386 771 -784 l23 -90
0 -2285 0 -2285 -23 -90 c-103 -403 -384 -684 -787 -787 l-90 -23 -2285 0
-2285 0 -90 23 c-403 103 -684 384 -787 787 l-23 90 0 2285 0 2285 23 90 c111
436 453 748 884 804 35 5 1078 8 2318 7 l2255 -1 96 -26z"/>
<path d="M1415 6526 c-583 -113 -930 -702 -741 -1258 44 -131 104 -232 203
-341 212 -235 295 -346 398 -526 60 -107 134 -270 176 -390 18 -51 43 -106 56
-122 30 -36 77 -45 128 -26 22 9 60 18 84 21 70 10 161 44 235 88 104 62 214
174 364 373 223 296 311 368 497 406 82 16 109 17 202 8 305 -28 550 -115 801
-283 59 -39 198 -142 308 -228 110 -87 252 -191 315 -233 322 -214 679 -325
1049 -325 131 0 157 13 188 91 11 30 37 97 58 149 115 295 274 548 495 785 56
61 124 142 150 182 172 263 201 603 78 899 -118 283 -389 506 -691 568 -97 20
-294 21 -385 2 -389 -82 -685 -380 -759 -764 -18 -95 -18 -270 0 -364 40 -204
118 -345 300 -538 109 -116 223 -267 307 -408 61 -102 179 -348 179 -372 0
-25 -272 19 -430 70 -216 69 -395 177 -725 435 -395 309 -588 417 -886 495
-168 44 -549 88 -549 63 0 -5 -28 -14 -63 -20 -213 -36 -367 -157 -605 -474
-144 -193 -249 -301 -332 -342 -29 -15 -55 -25 -58 -23 -6 7 122 265 178 356
75 123 172 249 289 375 230 248 315 443 314 720 0 145 -15 230 -63 352 -60
158 -173 309 -305 410 -91 71 -248 147 -355 173 -110 27 -308 35 -405 16z
m380 -236 c254 -81 435 -265 507 -515 18 -65 22 -104 22 -205 0 -114 -3 -133
-33 -220 -43 -127 -98 -212 -226 -350 -59 -63 -139 -157 -177 -208 -87 -116
-213 -324 -264 -436 l-38 -86 -61 123 c-117 233 -247 421 -423 610 -115 123
-163 192 -203 286 -122 293 -46 629 193 846 75 68 230 147 333 169 100 22 277
15 370 -14z m3864 -752 c35 -22 71 -86 71 -128 0 -45 -36 -106 -76 -130 -105
-66 -236 7 -236 130 0 128 129 196 241 128z"/>
<path d="M1468 5927 c-103 -39 -182 -110 -227 -206 -23 -49 -26 -69 -26 -156
0 -89 3 -106 28 -157 39 -79 104 -143 185 -181 60 -29 77 -32 157 -32 80 0 97
3 155 31 83 39 145 101 184 184 28 59 31 74 31 160 0 82 -4 103 -26 150 -39
82 -99 144 -177 182 -58 29 -78 33 -157 36 -57 1 -103 -3 -127 -11z m211 -235
c87 -63 77 -207 -19 -261 -105 -59 -230 17 -230 139 0 126 146 198 249 122z"/>
<path d="M2155 3831 c-49 -12 -74 -33 -96 -79 -18 -37 -21 -57 -17 -140 3 -83
7 -103 27 -131 38 -53 70 -61 249 -61 l159 0 68 -220 68 -220 -19 -23 c-11
-12 -62 -70 -113 -129 l-92 -106 -62 37 c-444 266 -1031 193 -1402 -174 -179
-178 -302 -416 -336 -653 -18 -128 -7 -345 24 -463 115 -438 447 -754 899
-855 105 -24 346 -24 458 0 326 70 602 267 773 552 80 133 142 325 154 477 5
69 8 77 27 78 12 0 66 4 121 8 l101 7 789 667 c435 367 793 667 796 667 4 0
12 -19 18 -42 6 -24 22 -78 35 -120 l24 -78 -71 -36 c-279 -142 -483 -378
-581 -674 -47 -143 -60 -241 -53 -419 6 -160 29 -266 87 -403 148 -347 456
-597 842 -684 105 -24 346 -24 458 0 443 95 783 419 897 855 31 119 42 340 23
459 -40 252 -151 471 -325 646 -164 165 -362 272 -610 327 -54 12 -303 16
-425 7 l-34 -3 -108 345 c-105 337 -107 347 -108 443 l0 97 -235 0 -235 0 0
-110 0 -110 125 0 124 0 27 -86 c15 -48 23 -89 18 -93 -8 -7 -1719 -288 -1787
-294 -28 -2 -29 -1 -78 153 -27 85 -49 158 -49 161 0 3 18 13 40 23 22 9 50
32 62 49 21 29 23 44 23 142 0 121 -9 145 -69 188 -30 21 -39 22 -306 24 -151
1 -288 -2 -305 -6z m2280 -720 c-11 -10 -297 -251 -635 -536 -338 -285 -624
-526 -635 -536 -21 -19 -21 -18 -154 407 -73 234 -131 427 -128 430 6 6 1502
251 1542 253 29 1 29 1 10 -18z m-1625 -756 c62 -198 116 -372 121 -387 7 -25
5 -28 -15 -28 -21 0 -26 9 -45 87 -46 183 -126 341 -243 480 -31 38 -58 71
-60 74 -5 11 116 149 123 141 4 -4 57 -169 119 -367z m-944 334 c122 -17 282
-73 363 -128 11 -7 -53 -88 -298 -372 l-312 -363 36 -36 c30 -31 35 -43 35
-83 0 -26 1 -47 3 -47 1 0 220 11 487 25 267 14 489 25 494 25 14 0 -2 -122
-29 -215 -97 -332 -367 -585 -708 -661 -96 -22 -298 -22 -394 0 -171 38 -330
123 -456 244 -121 117 -202 251 -254 419 -24 80 -27 103 -27 253 -1 177 7 224
61 358 42 106 102 199 187 289 95 101 175 160 289 213 163 76 345 104 523 79z
m3521 0 c192 -26 372 -113 511 -243 134 -127 215 -257 269 -433 25 -81 27
-102 27 -258 0 -156 -2 -177 -27 -258 -105 -340 -369 -587 -710 -663 -96 -22
-298 -22 -394 0 -171 38 -330 123 -456 244 -121 117 -202 251 -254 419 -24 80
-27 103 -27 253 -1 180 7 223 65 368 60 151 195 317 336 416 61 42 140 83 147
75 2 -2 61 -188 131 -414 70 -225 129 -412 131 -414 5 -5 185 50 198 60 4 4
-49 192 -119 419 -70 227 -123 416 -119 420 20 19 181 24 291 9z m-2881 -385
c55 -77 118 -209 143 -301 18 -67 18 -73 3 -74 -9 0 -165 -8 -347 -18 -181 -9
-331 -17 -333 -16 -1 1 97 118 219 259 l221 257 25 -23 c14 -13 45 -50 69 -84z"/>
</g>
</svg>
