<svg version="1.1" viewBox="0.0 0.0 392.501312335958 392.501312335958" fill="none" stroke="none" stroke-linecap="square" stroke-miterlimit="10" xmlns:xlink="http://www.w3.org/1999/xlink" xmlns="http://www.w3.org/2000/svg"><clipPath id="p.0"><path d="m0 0l392.5013 0l0 392.5013l-392.5013 0l0 -392.5013z" clip-rule="nonzero"/></clipPath><g clip-path="url(#p.0)"><path fill="#000000" fill-opacity="0.0" d="m0 0l392.5013 0l0 392.5013l-392.5013 0z" fill-rule="evenodd"/><path fill="#a4c2f4" d="m15.918635 76.03139l0 0c0 -33.19863 26.912807 -60.11144 60.11144 -60.11144l240.43855 0l0 0c15.942535 0 31.232117 6.333152 42.505188 17.606232c11.273071 11.273083 17.606232 26.56266 17.606232 42.505207l0 240.43855c0 33.19861 -26.912811 60.11142 -60.11142 60.11142l-240.43855 0c-33.19863 0 -60.11144 -26.912811 -60.11144 -60.11142z" fill-rule="evenodd"/><path stroke="#1155cc" stroke-width="24.0" stroke-linejoin="round" stroke-linecap="butt" d="m15.918635 76.03139l0 0c0 -33.19863 26.912807 -60.11144 60.11144 -60.11144l240.43855 0l0 0c15.942535 0 31.232117 6.333152 42.505188 17.606232c11.273071 11.273083 17.606232 26.56266 17.606232 42.505207l0 240.43855c0 33.19861 -26.912811 60.11142 -60.11142 60.11142l-240.43855 0c-33.19863 0 -60.11144 -26.912811 -60.11144 -60.11142z" fill-rule="evenodd"/><path fill="#1155cc" d="m165.20998 106.58268l11.637787 -46.55118l38.80316 0l11.637787 46.55118z" fill-rule="evenodd"/><path stroke="#1155cc" stroke-width="1.0" stroke-linejoin="round" stroke-linecap="butt" d="m165.20998 106.58268l11.637787 -46.55118l38.80316 0l11.637787 46.55118z" fill-rule="evenodd"/><path fill="#1155cc" d="m257.25085 124.86513l46.13153 -13.195503l19.390503 33.603615l-34.498413 33.355667z" fill-rule="evenodd"/><path stroke="#1155cc" stroke-width="1.0" stroke-linejoin="round" stroke-linecap="butt" d="m257.25085 124.86513l46.13153 -13.195503l19.390503 33.603615l-34.498413 33.355667z" fill-rule="evenodd"/><path fill="#1155cc" d="m289.95776 212.14908l35.67636 32.109802l-18.187347 34.268585l-46.59137 -11.543732z" fill-rule="evenodd"/><path stroke="#1155cc" stroke-width="1.0" stroke-linejoin="round" stroke-linecap="butt" d="m289.95776 212.14908l35.67636 32.109802l-18.187347 34.268585l-46.59137 -11.543732z" fill-rule="evenodd"/><path fill="#1155cc" d="m135.23027 265.72528l-46.13153 13.195496l-19.390488 -33.603607l34.498398 -33.355682z" fill-rule="evenodd"/><path stroke="#1155cc" stroke-width="1.0" stroke-linejoin="round" stroke-linecap="butt" d="m135.23027 265.72528l-46.13153 13.195496l-19.390488 -33.603607l34.498398 -33.355682z" fill-rule="evenodd"/><path fill="#1155cc" d="m104.19153 178.62868l-34.493965 -33.353104l19.413124 -33.608734l46.135956 13.198067z" fill-rule="evenodd"/><path stroke="#1155cc" stroke-width="1.0" stroke-linejoin="round" stroke-linecap="butt" d="m104.19153 178.62868l-34.493965 -33.353104l19.413124 -33.608734l46.135956 13.198067z" fill-rule="evenodd"/><path fill="#1155cc" d="m227.28871 286.65878l-11.637787 46.551178l-38.80316 0l-11.637787 -46.551178z" fill-rule="evenodd"/><path stroke="#1155cc" stroke-width="1.0" stroke-linejoin="round" stroke-linecap="butt" d="m227.28871 286.65878l-11.637787 46.551178l-38.80316 0l-11.637787 -46.551178z" fill-rule="evenodd"/><path fill="#1155cc" d="m97.997375 196.25066l0 0c0 -54.26306 43.988907 -98.25197 98.25197 -98.25197l0 0c26.058044 0 51.048813 10.351517 69.474625 28.777336c18.425812 18.42582 28.777344 43.416588 28.777344 69.47463l0 0c0 54.26306 -43.988907 98.25197 -98.25197 98.25197l0 0c-54.26306 0 -98.25197 -43.988907 -98.25197 -98.25197zm49.125977 0l0 0c0 27.13153 21.994461 49.12599 49.12599 49.12599c27.13153 0 49.12599 -21.994461 49.12599 -49.12599c0 -27.13153 -21.994461 -49.12599 -49.12599 -49.12599l0 0c-27.13153 0 -49.12599 21.994461 -49.12599 49.12599z" fill-rule="evenodd"/><path stroke="#1155cc" stroke-width="1.0" stroke-linejoin="round" stroke-linecap="butt" d="m97.997375 196.25066l0 0c0 -54.26306 43.988907 -98.25197 98.25197 -98.25197l0 0c26.058044 0 51.048813 10.351517 69.474625 28.777336c18.425812 18.42582 28.777344 43.416588 28.777344 69.47463l0 0c0 54.26306 -43.988907 98.25197 -98.25197 98.25197l0 0c-54.26306 0 -98.25197 -43.988907 -98.25197 -98.25197zm49.125977 0l0 0c0 27.13153 21.994461 49.12599 49.12599 49.12599c27.13153 0 49.12599 -21.994461 49.12599 -49.12599c0 -27.13153 -21.994461 -49.12599 -49.12599 -49.12599l0 0c-27.13153 0 -49.12599 21.994461 -49.12599 49.12599z" fill-rule="evenodd"/></g></svg>