<svg version="1.1" viewBox="0.0 0.0 392.501312335958 392.501312335958" fill="none" stroke="none" stroke-linecap="square" stroke-miterlimit="10" xmlns:xlink="http://www.w3.org/1999/xlink" xmlns="http://www.w3.org/2000/svg"><clipPath id="p.0"><path d="m0 0l392.5013 0l0 392.5013l-392.5013 0l0 -392.5013z" clip-rule="nonzero"/></clipPath><g clip-path="url(#p.0)"><path fill="#000000" fill-opacity="0.0" d="m0 0l392.5013 0l0 392.5013l-392.5013 0z" fill-rule="evenodd"/><path fill="#cccccc" d="m72.345146 244.08754l0 0c0 8.80394 55.47439 15.940933 123.90551 15.940933c68.43114 0 123.9055 -7.1369934 123.9055 -15.940933l0 95.645676c0 8.803925 -55.474365 15.940918 -123.9055 15.940918c-68.43112 0 -123.90551 -7.1369934 -123.90551 -15.940918z" fill-rule="evenodd"/><path fill="#e0e0e0" d="m72.345146 244.08754l0 0c0 -8.803955 55.47439 -15.9409485 123.90551 -15.9409485c68.43114 0 123.9055 7.1369934 123.9055 15.9409485l0 0c0 8.80394 -55.474365 15.940933 -123.9055 15.940933c-68.43112 0 -123.90551 -7.1369934 -123.90551 -15.940933z" fill-rule="evenodd"/><path fill="#000000" fill-opacity="0.0" d="m320.15616 244.08754l0 0c0 8.80394 -55.474365 15.940933 -123.9055 15.940933c-68.43112 0 -123.90551 -7.1369934 -123.90551 -15.940933l0 0c0 -8.803955 55.47439 -15.9409485 123.90551 -15.9409485c68.43114 0 123.9055 7.1369934 123.9055 15.9409485l0 95.645676c0 8.803925 -55.474365 15.940918 -123.9055 15.940918c-68.43112 0 -123.90551 -7.1369934 -123.90551 -15.940918l0 -95.645676" fill-rule="evenodd"/><path stroke="#000000" stroke-width="8.0" stroke-linejoin="round" stroke-linecap="butt" d="m320.15616 244.08754l0 0c0 8.80394 -55.474365 15.940933 -123.9055 15.940933c-68.43112 0 -123.90551 -7.1369934 -123.90551 -15.940933l0 0c0 -8.803955 55.47439 -15.9409485 123.90551 -15.9409485c68.43114 0 123.9055 7.1369934 123.9055 15.9409485l0 95.645676c0 8.803925 -55.474365 15.940918 -123.9055 15.940918c-68.43112 0 -123.90551 -7.1369934 -123.90551 -15.940918l0 -95.645676" fill-rule="evenodd"/><path fill="#cccccc" d="m72.345146 148.23323l0 0c0 8.80394 55.47439 15.9409485 123.90551 15.9409485c68.43114 0 123.9055 -7.1370087 123.9055 -15.9409485l0 95.645676c0 8.80394 -55.474365 15.9409485 -123.9055 15.9409485c-68.43112 0 -123.90551 -7.1370087 -123.90551 -15.9409485z" fill-rule="evenodd"/><path fill="#e0e0e0" d="m72.345146 148.23323l0 0c0 -8.80394 55.47439 -15.940933 123.90551 -15.940933c68.43114 0 123.9055 7.1369934 123.9055 15.940933l0 0c0 8.80394 -55.474365 15.9409485 -123.9055 15.9409485c-68.43112 0 -123.90551 -7.1370087 -123.90551 -15.9409485z" fill-rule="evenodd"/><path fill="#000000" fill-opacity="0.0" d="m320.15616 148.23323l0 0c0 8.80394 -55.474365 15.9409485 -123.9055 15.9409485c-68.43112 0 -123.90551 -7.1370087 -123.90551 -15.9409485l0 0c0 -8.80394 55.47439 -15.940933 123.90551 -15.940933c68.43114 0 123.9055 7.1369934 123.9055 15.940933l0 95.645676c0 8.80394 -55.474365 15.9409485 -123.9055 15.9409485c-68.43112 0 -123.90551 -7.1370087 -123.90551 -15.9409485l0 -95.645676" fill-rule="evenodd"/><path stroke="#000000" stroke-width="8.0" stroke-linejoin="round" stroke-linecap="butt" d="m320.15616 148.23323l0 0c0 8.80394 -55.474365 15.9409485 -123.9055 15.9409485c-68.43112 0 -123.90551 -7.1370087 -123.90551 -15.9409485l0 0c0 -8.80394 55.47439 -15.940933 123.90551 -15.940933c68.43114 0 123.9055 7.1369934 123.9055 15.940933l0 95.645676c0 8.80394 -55.474365 15.9409485 -123.9055 15.9409485c-68.43112 0 -123.90551 -7.1370087 -123.90551 -15.9409485l0 -95.645676" fill-rule="evenodd"/><path fill="#cccccc" d="m72.345146 52.769028l0 0c0 8.803944 55.47439 15.9409485 123.90551 15.9409485c68.43114 0 123.9055 -7.137005 123.9055 -15.9409485l0 95.645676c0 8.80394 -55.474365 15.940933 -123.9055 15.940933c-68.43112 0 -123.90551 -7.1369934 -123.90551 -15.940933z" fill-rule="evenodd"/><path fill="#e0e0e0" d="m72.345146 52.769028l0 0c0 -8.80394 55.47439 -15.940945 123.90551 -15.940945c68.43114 0 123.9055 7.137005 123.9055 15.940945l0 0c0 8.803944 -55.474365 15.9409485 -123.9055 15.9409485c-68.43112 0 -123.90551 -7.137005 -123.90551 -15.9409485z" fill-rule="evenodd"/><path fill="#000000" fill-opacity="0.0" d="m320.15616 52.769028l0 0c0 8.803944 -55.474365 15.9409485 -123.9055 15.9409485c-68.43112 0 -123.90551 -7.137005 -123.90551 -15.9409485l0 0c0 -8.80394 55.47439 -15.940945 123.90551 -15.940945c68.43114 0 123.9055 7.137005 123.9055 15.940945l0 95.645676c0 8.80394 -55.474365 15.940933 -123.9055 15.940933c-68.43112 0 -123.90551 -7.1369934 -123.90551 -15.940933l0 -95.645676" fill-rule="evenodd"/><path stroke="#000000" stroke-width="8.0" stroke-linejoin="round" stroke-linecap="butt" d="m320.15616 52.769028l0 0c0 8.803944 -55.474365 15.9409485 -123.9055 15.9409485c-68.43112 0 -123.90551 -7.137005 -123.90551 -15.9409485l0 0c0 -8.80394 55.47439 -15.940945 123.90551 -15.940945c68.43114 0 123.9055 7.137005 123.9055 15.940945l0 95.645676c0 8.80394 -55.474365 15.940933 -123.9055 15.940933c-68.43112 0 -123.90551 -7.1369934 -123.90551 -15.940933l0 -95.645676" fill-rule="evenodd"/><path fill="#999999" d="m274.15527 115.52974l0 0c0 -9.262733 7.5089417 -16.771652 16.771667 -16.771652l0 0c4.44812 0 8.71405 1.7670059 11.8593445 4.9123c3.1452942 3.1452942 4.9122925 7.411232 4.9122925 11.859352l0 0c0 9.262726 -7.508911 16.771652 -16.771637 16.771652l0 0c-9.262726 0 -16.771667 -7.5089264 -16.771667 -16.771652z" fill-rule="evenodd"/><path stroke="#999999" stroke-width="1.0" stroke-linejoin="round" stroke-linecap="butt" d="m274.15527 115.52974l0 0c0 -9.262733 7.5089417 -16.771652 16.771667 -16.771652l0 0c4.44812 0 8.71405 1.7670059 11.8593445 4.9123c3.1452942 3.1452942 4.9122925 7.411232 4.9122925 11.859352l0 0c0 9.262726 -7.508911 16.771652 -16.771637 16.771652l0 0c-9.262726 0 -16.771667 -7.5089264 -16.771667 -16.771652z" fill-rule="evenodd"/><path fill="#999999" d="m274.15527 211.38403l0 0c0 -9.262726 7.5089417 -16.771652 16.771667 -16.771652l0 0c4.44812 0 8.71405 1.7670135 11.8593445 4.9123077c3.1452942 3.1452942 4.9122925 7.4112244 4.9122925 11.8593445l0 0c0 9.262726 -7.508911 16.771652 -16.771637 16.771652l0 0c-9.262726 0 -16.771667 -7.5089264 -16.771667 -16.771652z" fill-rule="evenodd"/><path stroke="#999999" stroke-width="1.0" stroke-linejoin="round" stroke-linecap="butt" d="m274.15527 211.38403l0 0c0 -9.262726 7.5089417 -16.771652 16.771667 -16.771652l0 0c4.44812 0 8.71405 1.7670135 11.8593445 4.9123077c3.1452942 3.1452942 4.9122925 7.4112244 4.9122925 11.8593445l0 0c0 9.262726 -7.508911 16.771652 -16.771637 16.771652l0 0c-9.262726 0 -16.771667 -7.5089264 -16.771667 -16.771652z" fill-rule="evenodd"/><path fill="#999999" d="m274.15527 307.23834l0 0c0 -9.262726 7.5089417 -16.771667 16.771667 -16.771667l0 0c4.44812 0 8.71405 1.7669983 11.8593445 4.9122925c3.1452942 3.1452942 4.9122925 7.411255 4.9122925 11.859375l0 0c0 9.262726 -7.508911 16.771637 -16.771637 16.771637l0 0c-9.262726 0 -16.771667 -7.508911 -16.771667 -16.771637z" fill-rule="evenodd"/><path stroke="#999999" stroke-width="1.0" stroke-linejoin="round" stroke-linecap="butt" d="m274.15527 307.23834l0 0c0 -9.262726 7.5089417 -16.771667 16.771667 -16.771667l0 0c4.44812 0 8.71405 1.7669983 11.8593445 4.9122925c3.1452942 3.1452942 4.9122925 7.411255 4.9122925 11.859375l0 0c0 9.262726 -7.508911 16.771637 -16.771637 16.771637l0 0c-9.262726 0 -16.771667 -7.508911 -16.771667 -16.771637z" fill-rule="evenodd"/></g></svg>