<svg version="1.1" viewBox="0.0 0.0 392.501312335958 392.501312335958" fill="none" stroke="none" stroke-linecap="square" stroke-miterlimit="10" xmlns:xlink="http://www.w3.org/1999/xlink" xmlns="http://www.w3.org/2000/svg"><clipPath id="p.0"><path d="m0 0l392.5013 0l0 392.5013l-392.5013 0l0 -392.5013z" clip-rule="nonzero"/></clipPath><g clip-path="url(#p.0)"><path fill="#000000" fill-opacity="0.0" d="m0 0l392.5013 0l0 392.5013l-392.5013 0z" fill-rule="evenodd"/><path fill="#000000" fill-opacity="0.0" d="m15.918635 76.03139l0 0c0 -33.19863 26.912807 -60.11144 60.11144 -60.11144l240.43855 0l0 0c15.942535 0 31.232117 6.333152 42.505188 17.606232c11.273071 11.273083 17.606232 26.56266 17.606232 42.505207l0 240.43855c0 33.19861 -26.912811 60.11142 -60.11142 60.11142l-240.43855 0c-33.19863 0 -60.11144 -26.912811 -60.11144 -60.11142z" fill-rule="evenodd"/><path stroke="#4a86e8" stroke-width="24.0" stroke-linejoin="round" stroke-linecap="butt" d="m15.918635 76.03139l0 0c0 -33.19863 26.912807 -60.11144 60.11144 -60.11144l240.43855 0l0 0c15.942535 0 31.232117 6.333152 42.505188 17.606232c11.273071 11.273083 17.606232 26.56266 17.606232 42.505207l0 240.43855c0 33.19861 -26.912811 60.11142 -60.11142 60.11142l-240.43855 0c-33.19863 0 -60.11144 -26.912811 -60.11144 -60.11142z" fill-rule="evenodd"/><path fill="#000000" fill-opacity="0.0" d="m103.63517 24.96063l185.22836 0l0 342.58267l-185.22836 0z" fill-rule="evenodd"/><path fill="#4a86e8" d="m202.2133 121.08563l0 28.25l-31.765625 0l0 -28.25l31.765625 0zm3.640625 50.65625l0 91.53125l32.03125 0q9.640625 0 13.734375 3.71875q4.109375 3.703125 4.109375 9.6875q0 5.859375 -4.109375 9.578125q-4.09375 3.703125 -13.734375 3.703125l-90.75 0q-9.625 0 -13.734375 -3.703125q-4.09375 -3.71875 -4.09375 -9.703125q0 -5.859375 4.09375 -9.5625q4.109375 -3.71875 13.734375 -3.71875l32.03125 0l0 -64.84375l-21.484375 0q-9.5 0 -13.671875 -3.703125q-4.15625 -3.71875 -4.15625 -9.703125q0 -5.859375 4.09375 -9.5625q4.109375 -3.71875 13.734375 -3.71875l48.171875 0z" fill-rule="nonzero"/></g></svg>