<svg version="1.1" viewBox="0.0 0.0 392.501312335958 392.501312335958" fill="none" stroke="none" stroke-linecap="square" stroke-miterlimit="10" xmlns:xlink="http://www.w3.org/1999/xlink" xmlns="http://www.w3.org/2000/svg"><clipPath id="p.0"><path d="m0 0l392.5013 0l0 392.5013l-392.5013 0l0 -392.5013z" clip-rule="nonzero"/></clipPath><g clip-path="url(#p.0)"><path fill="#000000" fill-opacity="0.0" d="m0 0l392.5013 0l0 392.5013l-392.5013 0z" fill-rule="evenodd"/><path fill="#ffffff" d="m2.816273 38.217148l0 0c0 -19.549913 15.848337 -35.39825 35.39825 -35.39825l316.06964 0c9.388214 0 18.391907 3.7294478 25.030365 10.3679085c6.6384583 6.63846 10.367889 15.642143 10.367889 25.030342l0 316.06964c0 19.549927 -15.848328 35.398254 -35.398254 35.398254l-316.06964 0c-19.549913 0 -35.39825 -15.848328 -35.39825 -35.398254z" fill-rule="evenodd"/><path stroke="#000000" stroke-width="8.0" stroke-linejoin="round" stroke-linecap="butt" d="m2.816273 38.217148l0 0c0 -19.549913 15.848337 -35.39825 35.39825 -35.39825l316.06964 0c9.388214 0 18.391907 3.7294478 25.030365 10.3679085c6.6384583 6.63846 10.367889 15.642143 10.367889 25.030342l0 316.06964c0 19.549927 -15.848328 35.398254 -35.398254 35.398254l-316.06964 0c-19.549913 0 -35.39825 -15.848328 -35.39825 -35.398254z" fill-rule="evenodd"/><path fill="#000000" fill-opacity="0.0" d="m80.62244 196.24467l0 0c0 -63.856293 51.765747 -115.62205 115.62204 -115.62205l0 0c30.664871 0 60.07379 12.181572 81.75714 33.864914c21.68335 21.683342 33.8649 51.092262 33.8649 81.75713l0 0c0 63.856277 -51.765747 115.622055 -115.62204 115.622055l0 0c-63.856293 0 -115.62204 -51.765778 -115.62204 -115.622055z" fill-rule="evenodd"/><path stroke="#000000" stroke-width="24.0" stroke-linejoin="round" stroke-linecap="butt" d="m80.62244 196.24467l0 0c0 -63.856293 51.765747 -115.62205 115.62204 -115.62205l0 0c30.664871 0 60.07379 12.181572 81.75714 33.864914c21.68335 21.683342 33.8649 51.092262 33.8649 81.75713l0 0c0 63.856277 -51.765747 115.622055 -115.62204 115.622055l0 0c-63.856293 0 -115.62204 -51.765778 -115.62204 -115.622055z" fill-rule="evenodd"/><path fill="#000000" d="m33.510555 184.73328l151.2214 0l0 -151.2214l23.03749 0l0 151.2214l151.22142 0l0 23.03749l-151.22142 0l0 151.22142l-23.03749 0l0 -151.22142l-151.2214 0z" fill-rule="evenodd"/><path stroke="#000000" stroke-width="1.0" stroke-linejoin="round" stroke-linecap="butt" d="m33.510555 184.73328l151.2214 0l0 -151.2214l23.03749 0l0 151.2214l151.22142 0l0 23.03749l-151.22142 0l0 151.22142l-23.03749 0l0 -151.22142l-151.2214 0z" fill-rule="evenodd"/></g></svg>