<svg version="1.1" viewBox="0.0 0.0 128.14698162729658 128.14698162729658" fill="none" stroke="none" stroke-linecap="square" stroke-miterlimit="10" xmlns:xlink="http://www.w3.org/1999/xlink" xmlns="http://www.w3.org/2000/svg"><clipPath id="p.0"><path d="m0 0l128.14699 0l0 128.14699l-128.14699 0l0 -128.14699z" clip-rule="nonzero"/></clipPath><g clip-path="url(#p.0)"><path fill="#000000" fill-opacity="0.0" d="m0 0l128.14699 0l0 128.14699l-128.14699 0z" fill-rule="evenodd"/><path fill="#cfe2f3" d="m-165.29659 -96.78868l4.448822 -17.79528l14.818893 0l4.448822 17.79528z" fill-rule="evenodd"/><path stroke="#000000" stroke-width="1.0" stroke-linejoin="round" stroke-linecap="butt" d="m-165.29659 -96.78868l4.448822 -17.79528l14.818893 0l4.448822 17.79528z" fill-rule="evenodd"/><path fill="#cfe2f3" d="m-137.50293 -96.15748l15.748032 -9.448822l10.456696 10.456696l-9.448822 15.748032z" fill-rule="evenodd"/><path stroke="#000000" stroke-width="1.0" stroke-linejoin="round" stroke-linecap="butt" d="m-137.50293 -96.15748l15.748032 -9.448822l10.456696 10.456696l-9.448822 15.748032z" fill-rule="evenodd"/><path fill="#cfe2f3" d="m-119.316925 -74.91646l17.826775 4.4566956l0 14.771652l-17.826775 4.4566956z" fill-rule="evenodd"/><path stroke="#000000" stroke-width="1.0" stroke-linejoin="round" stroke-linecap="butt" d="m-119.316925 -74.91646l17.826775 4.4566956l0 14.771652l-17.826775 4.4566956z" fill-rule="evenodd"/><path fill="#cfe2f3" d="m-120.58116 -46.913364l9.448822 15.748032l-10.456696 10.456694l-15.748032 -9.448818z" fill-rule="evenodd"/><path stroke="#000000" stroke-width="1.0" stroke-linejoin="round" stroke-linecap="butt" d="m-120.58116 -46.913364l9.448822 15.748032l-10.456696 10.456694l-15.748032 -9.448818z" fill-rule="evenodd"/><path fill="#cfe2f3" d="m-141.5945 -29.354017l-4.4566956 17.82677l-14.771652 0l-4.4566956 -17.82677z" fill-rule="evenodd"/><path stroke="#000000" stroke-width="1.0" stroke-linejoin="round" stroke-linecap="butt" d="m-141.5945 -29.354017l-4.4566956 17.82677l-14.771652 0l-4.4566956 -17.82677z" fill-rule="evenodd"/><path fill="#cfe2f3" d="m-169.70679 -30.995209l-15.748032 9.448818l-10.45668 -10.456692l9.448807 -15.748032z" fill-rule="evenodd"/><path stroke="#000000" stroke-width="1.0" stroke-linejoin="round" stroke-linecap="butt" d="m-169.70679 -30.995209l-15.748032 9.448818l-10.45668 -10.456692l9.448807 -15.748032z" fill-rule="evenodd"/><path fill="#cfe2f3" d="m-187.23119 -52.068687l-17.826767 -4.4566917l0 -14.771656l17.826767 -4.456688z" fill-rule="evenodd"/><path stroke="#000000" stroke-width="1.0" stroke-linejoin="round" stroke-linecap="butt" d="m-187.23119 -52.068687l-17.826767 -4.4566917l0 -14.771656l17.826767 -4.456688z" fill-rule="evenodd"/><path fill="#cfe2f3" d="m-186.12941 -79.40167l-9.448822 -15.748032l10.456696 -10.456696l15.748032 9.448822z" fill-rule="evenodd"/><path stroke="#000000" stroke-width="1.0" stroke-linejoin="round" stroke-linecap="butt" d="m-186.12941 -79.40167l-9.448822 -15.748032l10.456696 -10.456696l15.748032 9.448822z" fill-rule="evenodd"/><path fill="#cfe2f3" d="m-190.54068 -63.07349l0 0c0 -20.49107 16.611298 -37.10236 37.102356 -37.10236l0 0c9.840164 0 19.277298 3.9089813 26.235336 10.867027c6.9580383 6.958046 10.867027 16.395172 10.867027 26.235332l0 0c0 20.49107 -16.61129 37.102364 -37.102364 37.102364l0 0c-20.491058 0 -37.102356 -16.611292 -37.102356 -37.102364zm18.551178 0l0 0c0 10.245533 8.305649 18.551182 18.551178 18.551182c10.245544 0 18.551178 -8.305649 18.551178 -18.551182c0 -10.245533 -8.305634 -18.551182 -18.551178 -18.551182l0 0c-10.245529 0 -18.551178 8.305649 -18.551178 18.551182z" fill-rule="evenodd"/><path stroke="#000000" stroke-width="1.0" stroke-linejoin="round" stroke-linecap="butt" d="m-190.54068 -63.07349l0 0c0 -20.49107 16.611298 -37.10236 37.102356 -37.10236l0 0c9.840164 0 19.277298 3.9089813 26.235336 10.867027c6.9580383 6.958046 10.867027 16.395172 10.867027 26.235332l0 0c0 20.49107 -16.61129 37.102364 -37.102364 37.102364l0 0c-20.491058 0 -37.102356 -16.611292 -37.102356 -37.102364zm18.551178 0l0 0c0 10.245533 8.305649 18.551182 18.551178 18.551182c10.245544 0 18.551178 -8.305649 18.551178 -18.551182c0 -10.245533 -8.305634 -18.551182 -18.551178 -18.551182l0 0c-10.245529 0 -18.551178 8.305649 -18.551178 18.551182z" fill-rule="evenodd"/><path fill="#000000" fill-opacity="0.0" d="m-204.78215 -96.15748l33.32283 -26.803154" fill-rule="evenodd"/><path stroke="#000000" stroke-width="2.0" stroke-linejoin="round" stroke-linecap="butt" d="m-204.78215 -96.15748l33.32283 -26.803154" fill-rule="evenodd"/><path fill="#000000" fill-opacity="0.0" d="m-171.94751 -122.62467l30.48819 6.1732254" fill-rule="evenodd"/><path stroke="#000000" stroke-width="2.0" stroke-linejoin="round" stroke-linecap="butt" d="m-171.94751 -122.62467l30.48819 6.1732254" fill-rule="evenodd"/><path fill="#000000" fill-opacity="0.0" d="m-142.13124 -116.5958l26.992134 -15.748024" fill-rule="evenodd"/><path stroke="#000000" stroke-width="2.0" stroke-linejoin="round" stroke-linecap="butt" d="m-142.13124 -116.5958l16.62722 -9.700829" fill-rule="evenodd"/><path fill="#000000" stroke="#000000" stroke-width="2.0" stroke-linecap="butt" d="m-123.83929 -123.44328l6.1747665 -7.4271393l-9.504219 1.720459z" fill-rule="evenodd"/><path fill="#ffd966" d="m64.07218 2.7191503l61.354324 61.35433l-61.354324 61.354332l-61.354332 -61.354332z" fill-rule="evenodd"/><path stroke="#ffd966" stroke-width="4.0" stroke-linejoin="round" stroke-linecap="butt" d="m64.07218 2.7191503l61.354324 61.35433l-61.354324 61.354332l-61.354332 -61.354332z" fill-rule="evenodd"/><path fill="#ffd966" d="m64.05841 11.569553l52.503937 52.50394l-52.472443 52.503937l-52.503937 -52.503937z" fill-rule="evenodd"/><path stroke="#000000" stroke-width="8.0" stroke-linejoin="round" stroke-linecap="butt" d="m64.05841 11.569553l52.503937 52.50394l-52.472443 52.503937l-52.503937 -52.503937z" fill-rule="evenodd"/><path fill="#000000" fill-opacity="0.0" d="m236.74458 -56.73581l-21.196838 21.19685" fill-rule="evenodd"/><path stroke="#000000" stroke-width="1.3175853018372703" stroke-linejoin="round" stroke-linecap="butt" d="m236.74458 -56.73581l-21.196838 21.19685" fill-rule="evenodd"/><path fill="#000000" fill-opacity="0.0" d="m248.07976 -44.51692l-12.0 -12.0" fill-rule="evenodd"/><path stroke="#000000" stroke-width="1.3175853018372703" stroke-linejoin="round" stroke-linecap="butt" d="m248.07976 -44.51692l-12.0 -12.0" fill-rule="evenodd"/><path fill="#000000" fill-opacity="0.0" d="m248.08052 -43.68932l21.196854 -21.19685" fill-rule="evenodd"/><path stroke="#000000" stroke-width="1.3175853018372703" stroke-linejoin="round" stroke-linecap="butt" d="m248.08052 -43.68932l15.606827 -15.606812" fill-rule="evenodd"/><path fill="#000000" stroke="#000000" stroke-width="1.3175853018372703" stroke-linecap="butt" d="m265.2262 -57.757256l2.689148 -5.766899l-5.766876 2.6891518z" fill-rule="evenodd"/><path fill="#93c47d" d="m47.412075 57.002625l16.661419 -16.661419l16.661415 16.661419l-8.330711 0l0 30.803146l-16.661415 0l0 -30.803146z" fill-rule="evenodd"/><path stroke="#000000" stroke-width="2.0" stroke-linejoin="round" stroke-linecap="butt" d="m47.412075 57.002625l16.661419 -16.661419l16.661415 16.661419l-8.330711 0l0 30.803146l-16.661415 0l0 -30.803146z" fill-rule="evenodd"/></g></svg>