<svg version="1.1" viewBox="0.0 0.0 392.501312335958 392.501312335958" fill="none" stroke="none" stroke-linecap="square" stroke-miterlimit="10" xmlns:xlink="http://www.w3.org/1999/xlink" xmlns="http://www.w3.org/2000/svg"><clipPath id="p.0"><path d="m0 0l392.5013 0l0 392.5013l-392.5013 0l0 -392.5013z" clip-rule="nonzero"/></clipPath><g clip-path="url(#p.0)"><path fill="#000000" fill-opacity="0.0" d="m0 0l392.5013 0l0 392.5013l-392.5013 0z" fill-rule="evenodd"/><path fill="#a4c2f4" d="m15.918635 76.03139l0 0c0 -33.19863 26.912807 -60.11144 60.11144 -60.11144l240.43855 0l0 0c15.942535 0 31.232117 6.333152 42.505188 17.606232c11.273071 11.273083 17.606232 26.56266 17.606232 42.505207l0 240.43855c0 33.19861 -26.912811 60.11142 -60.11142 60.11142l-240.43855 0c-33.19863 0 -60.11144 -26.912811 -60.11144 -60.11142z" fill-rule="evenodd"/><path stroke="#1155cc" stroke-width="24.0" stroke-linejoin="round" stroke-linecap="butt" d="m15.918635 76.03139l0 0c0 -33.19863 26.912807 -60.11144 60.11144 -60.11144l240.43855 0l0 0c15.942535 0 31.232117 6.333152 42.505188 17.606232c11.273071 11.273083 17.606232 26.56266 17.606232 42.505207l0 240.43855c0 33.19861 -26.912811 60.11142 -60.11142 60.11142l-240.43855 0c-33.19863 0 -60.11144 -26.912811 -60.11144 -60.11142z" fill-rule="evenodd"/><path fill="#000000" fill-opacity="0.0" d="m103.63517 -15.450131l185.22836 0l0 423.40158l-185.22836 0z" fill-rule="evenodd"/><path fill="#1155cc" d="m229.6508 236.56549q-0.96875 9.4375 -5.453125 13.75q-4.46875 4.3125 -11.296875 4.3125q-7.328125 0 -11.96875 -5.125q-4.640625 -5.125 -4.640625 -17.171875l0 -18.71875q39.546875 -15.125 47.6875 -23.265625q8.140625 -8.140625 8.140625 -16.609375q0 -11.875 -9.53125 -20.5q-9.515625 -8.625 -26.921875 -8.625q-18.390625 0 -35.484375 8.453125l0 4.890625q0 11.875 -4.640625 17.0q-4.640625 5.125 -12.125 5.125q-7.328125 0 -11.96875 -5.03125q-4.640625 -5.046875 -4.640625 -17.09375l0 -26.859375q25.5625 -12.046875 39.71875 -15.953125q14.15625 -3.90625 29.296875 -3.90625q31.578125 0 50.60936 18.234375q19.046875 18.234375 19.046875 45.734375q0 19.53125 -11.46875 33.203125q-11.46875 13.671875 -44.35936 28.15625zm7.0 64.453125q0 7.65625 -5.453125 12.453125q-5.453125 4.796875 -18.140625 4.796875q-12.703125 0 -18.15625 -4.796875q-5.4375 -4.796875 -5.4375 -12.453125q0 -7.65625 5.359375 -12.453125q5.375 -4.796875 18.234375 -4.796875q12.6875 0 18.140625 4.796875q5.453125 4.796875 5.453125 12.453125z" fill-rule="nonzero"/></g></svg>