<svg version="1.1" viewBox="0.0 0.0 392.501312335958 392.501312335958" fill="none" stroke="none" stroke-linecap="square" stroke-miterlimit="10" xmlns:xlink="http://www.w3.org/1999/xlink" xmlns="http://www.w3.org/2000/svg"><clipPath id="p.0"><path d="m0 0l392.5013 0l0 392.5013l-392.5013 0l0 -392.5013z" clip-rule="nonzero"/></clipPath><g clip-path="url(#p.0)"><path fill="#000000" fill-opacity="0.0" d="m0 0l392.5013 0l0 392.5013l-392.5013 0z" fill-rule="evenodd"/><path fill="#a4c2f4" d="m15.918635 76.03139l0 0c0 -33.19863 26.912807 -60.11144 60.11144 -60.11144l240.43855 0l0 0c15.942535 0 31.232117 6.333152 42.505188 17.606232c11.273071 11.273083 17.606232 26.56266 17.606232 42.505207l0 240.43855c0 33.19861 -26.912811 60.11142 -60.11142 60.11142l-240.43855 0c-33.19863 0 -60.11144 -26.912811 -60.11144 -60.11142z" fill-rule="evenodd"/><path stroke="#1155cc" stroke-width="24.0" stroke-linejoin="round" stroke-linecap="butt" d="m15.918635 76.03139l0 0c0 -33.19863 26.912807 -60.11144 60.11144 -60.11144l240.43855 0l0 0c15.942535 0 31.232117 6.333152 42.505188 17.606232c11.273071 11.273083 17.606232 26.56266 17.606232 42.505207l0 240.43855c0 33.19861 -26.912811 60.11142 -60.11142 60.11142l-240.43855 0c-33.19863 0 -60.11144 -26.912811 -60.11144 -60.11142z" fill-rule="evenodd"/><path fill="#1155cc" d="m52.333332 106.88058l0 0c0 -16.57724 13.438511 -30.015747 30.01575 -30.015747l0 0c7.9606705 0 15.595291 3.1623611 21.224335 8.791405c5.6290436 5.629051 8.791412 13.263672 8.791412 21.224342l0 0c0 16.57724 -13.438507 30.015755 -30.015747 30.015755l0 0c-16.57724 0 -30.01575 -13.438515 -30.01575 -30.015755z" fill-rule="evenodd"/><path stroke="#1155cc" stroke-width="1.0" stroke-linejoin="round" stroke-linecap="butt" d="m52.333332 106.88058l0 0c0 -16.57724 13.438511 -30.015747 30.01575 -30.015747l0 0c7.9606705 0 15.595291 3.1623611 21.224335 8.791405c5.6290436 5.629051 8.791412 13.263672 8.791412 21.224342l0 0c0 16.57724 -13.438507 30.015755 -30.015747 30.015755l0 0c-16.57724 0 -30.01575 -13.438515 -30.01575 -30.015755z" fill-rule="evenodd"/><path fill="#1155cc" d="m52.333332 196.25066l0 0c0 -16.57724 13.438511 -30.015747 30.01575 -30.015747l0 0c7.9606705 0 15.595291 3.1623688 21.224335 8.791412c5.6290436 5.6290436 8.791412 13.263657 8.791412 21.224335l0 0c0 16.57724 -13.438507 30.015747 -30.015747 30.015747l0 0c-16.57724 0 -30.01575 -13.438507 -30.01575 -30.015747z" fill-rule="evenodd"/><path stroke="#1155cc" stroke-width="1.0" stroke-linejoin="round" stroke-linecap="butt" d="m52.333332 196.25066l0 0c0 -16.57724 13.438511 -30.015747 30.01575 -30.015747l0 0c7.9606705 0 15.595291 3.1623688 21.224335 8.791412c5.6290436 5.6290436 8.791412 13.263657 8.791412 21.224335l0 0c0 16.57724 -13.438507 30.015747 -30.015747 30.015747l0 0c-16.57724 0 -30.01575 -13.438507 -30.01575 -30.015747z" fill-rule="evenodd"/><path fill="#1155cc" d="m52.333332 285.62073l0 0c0 -16.57724 13.438511 -30.015747 30.01575 -30.015747l0 0c7.9606705 0 15.595291 3.162384 21.224335 8.791412c5.6290436 5.629059 8.791412 13.263672 8.791412 21.224335l0 0c0 16.57724 -13.438507 30.015747 -30.015747 30.015747l0 0c-16.57724 0 -30.01575 -13.438507 -30.01575 -30.015747z" fill-rule="evenodd"/><path stroke="#1155cc" stroke-width="1.0" stroke-linejoin="round" stroke-linecap="butt" d="m52.333332 285.62073l0 0c0 -16.57724 13.438511 -30.015747 30.01575 -30.015747l0 0c7.9606705 0 15.595291 3.162384 21.224335 8.791412c5.6290436 5.629059 8.791412 13.263672 8.791412 21.224335l0 0c0 16.57724 -13.438507 30.015747 -30.015747 30.015747l0 0c-16.57724 0 -30.01575 -13.438507 -30.01575 -30.015747z" fill-rule="evenodd"/><path fill="#1155cc" d="m133.39896 106.88189l0 0c0 -16.57724 13.438507 -30.015747 30.015747 -30.015747l146.74014 0c7.9606934 0 15.595306 3.1623611 21.224335 8.791405c5.629059 5.629051 8.791412 13.263672 8.791412 21.224342l0 0l0 0c0 16.57724 -13.438507 30.015755 -30.015747 30.015755l-146.74014 0c-16.57724 0 -30.015747 -13.438515 -30.015747 -30.015755z" fill-rule="evenodd"/><path stroke="#1155cc" stroke-width="1.0" stroke-linejoin="round" stroke-linecap="butt" d="m133.39896 106.88189l0 0c0 -16.57724 13.438507 -30.015747 30.015747 -30.015747l146.74014 0c7.9606934 0 15.595306 3.1623611 21.224335 8.791405c5.629059 5.629051 8.791412 13.263672 8.791412 21.224342l0 0l0 0c0 16.57724 -13.438507 30.015755 -30.015747 30.015755l-146.74014 0c-16.57724 0 -30.015747 -13.438515 -30.015747 -30.015755z" fill-rule="evenodd"/><path fill="#1155cc" d="m133.39896 196.25066l0 0c0 -16.57724 13.438507 -30.015747 30.015747 -30.015747l146.74014 0c7.9606934 0 15.595306 3.1623688 21.224335 8.791412c5.629059 5.6290436 8.791412 13.263657 8.791412 21.224335l0 0l0 0c0 16.57724 -13.438507 30.015747 -30.015747 30.015747l-146.74014 0c-16.57724 0 -30.015747 -13.438507 -30.015747 -30.015747z" fill-rule="evenodd"/><path stroke="#1155cc" stroke-width="1.0" stroke-linejoin="round" stroke-linecap="butt" d="m133.39896 196.25066l0 0c0 -16.57724 13.438507 -30.015747 30.015747 -30.015747l146.74014 0c7.9606934 0 15.595306 3.1623688 21.224335 8.791412c5.629059 5.6290436 8.791412 13.263657 8.791412 21.224335l0 0l0 0c0 16.57724 -13.438507 30.015747 -30.015747 30.015747l-146.74014 0c-16.57724 0 -30.015747 -13.438507 -30.015747 -30.015747z" fill-rule="evenodd"/><path fill="#1155cc" d="m133.39896 285.62204l0 0c0 -16.57724 13.438507 -30.015747 30.015747 -30.015747l146.74014 0c7.9606934 0 15.595306 3.162384 21.224335 8.791412c5.629059 5.629059 8.791412 13.263672 8.791412 21.224335l0 0l0 0c0 16.57724 -13.438507 30.015747 -30.015747 30.015747l-146.74014 0c-16.57724 0 -30.015747 -13.438507 -30.015747 -30.015747z" fill-rule="evenodd"/><path stroke="#1155cc" stroke-width="1.0" stroke-linejoin="round" stroke-linecap="butt" d="m133.39896 285.62204l0 0c0 -16.57724 13.438507 -30.015747 30.015747 -30.015747l146.74014 0c7.9606934 0 15.595306 3.162384 21.224335 8.791412c5.629059 5.629059 8.791412 13.263672 8.791412 21.224335l0 0l0 0c0 16.57724 -13.438507 30.015747 -30.015747 30.015747l-146.74014 0c-16.57724 0 -30.015747 -13.438507 -30.015747 -30.015747z" fill-rule="evenodd"/></g></svg>