<svg version="1.1" viewBox="0.0 0.0 392.501312335958 392.501312335958" fill="none" stroke="none" stroke-linecap="square" stroke-miterlimit="10" xmlns:xlink="http://www.w3.org/1999/xlink" xmlns="http://www.w3.org/2000/svg"><clipPath id="p.0"><path d="m0 0l392.5013 0l0 392.5013l-392.5013 0l0 -392.5013z" clip-rule="nonzero"/></clipPath><g clip-path="url(#p.0)"><path fill="#000000" fill-opacity="0.0" d="m0 0l392.5013 0l0 392.5013l-392.5013 0z" fill-rule="evenodd"/><path fill="#ff9900" d="m17.604986 350.73883l178.64568 -308.97638l178.64568 308.97638z" fill-rule="evenodd"/><path stroke="#ffff00" stroke-width="24.0" stroke-linejoin="round" stroke-linecap="butt" d="m17.604986 350.73883l178.64568 -308.97638l178.64568 308.97638z" fill-rule="evenodd"/><path fill="#000000" fill-opacity="0.0" d="m118.76085 130.64525l154.99214 0l0 174.51967l-154.99214 0z" fill-rule="evenodd"/><path fill="#000000" d="m192.91316 239.77525l-3.4375 -48.5625l0 -20.3125l13.9375 0l0 20.3125l-3.25 48.5625l-7.25 0zm-2.9375 22.749985l0 -12.812485l12.9375 0l0 12.812485l-12.9375 0z" fill-rule="nonzero"/></g></svg>