<svg version="1.1" viewBox="0.0 0.0 392.501312335958 392.501312335958" fill="none" stroke="none" stroke-linecap="square" stroke-miterlimit="10" xmlns:xlink="http://www.w3.org/1999/xlink" xmlns="http://www.w3.org/2000/svg"><clipPath id="p.0"><path d="m0 0l392.5013 0l0 392.5013l-392.5013 0l0 -392.5013z" clip-rule="nonzero"/></clipPath><g clip-path="url(#p.0)"><path fill="#000000" fill-opacity="0.0" d="m0 0l392.5013 0l0 392.5013l-392.5013 0z" fill-rule="evenodd"/><path fill="#000000" fill-opacity="0.0" d="m15.918635 76.03139l0 0c0 -33.19863 26.912807 -60.11144 60.11144 -60.11144l240.43855 0l0 0c15.942535 0 31.232117 6.333152 42.505188 17.606232c11.273071 11.273083 17.606232 26.56266 17.606232 42.505207l0 240.43855c0 33.19861 -26.912811 60.11142 -60.11142 60.11142l-240.43855 0c-33.19863 0 -60.11144 -26.912811 -60.11144 -60.11142z" fill-rule="evenodd"/><path stroke="#4a86e8" stroke-width="24.0" stroke-linejoin="round" stroke-linecap="butt" d="m15.918635 76.03139l0 0c0 -33.19863 26.912807 -60.11144 60.11144 -60.11144l240.43855 0l0 0c15.942535 0 31.232117 6.333152 42.505188 17.606232c11.273071 11.273083 17.606232 26.56266 17.606232 42.505207l0 240.43855c0 33.19861 -26.912811 60.11142 -60.11142 60.11142l-240.43855 0c-33.19863 0 -60.11144 -26.912811 -60.11144 -60.11142z" fill-rule="evenodd"/><path fill="#4a86e8" d="m172.26663 221.36464l0 127.403275l49.167175 -17.87143l0 -108.95383l124.12497 -148.4479l-298.62045 0z" fill-rule="evenodd"/><path stroke="#4a86e8" stroke-width="1.0" stroke-linejoin="round" stroke-linecap="butt" d="m172.26663 221.36464l0 127.403275l49.167175 -17.87143l0 -108.95383l124.12497 -148.4479l-298.62045 0z" fill-rule="evenodd"/></g></svg>