<svg version="1.1" viewBox="0.0 0.0 392.501312335958 392.501312335958" fill="none" stroke="none" stroke-linecap="square" stroke-miterlimit="10" xmlns:xlink="http://www.w3.org/1999/xlink" xmlns="http://www.w3.org/2000/svg"><clipPath id="p.0"><path d="m0 0l392.5013 0l0 392.5013l-392.5013 0l0 -392.5013z" clip-rule="nonzero"/></clipPath><g clip-path="url(#p.0)"><path fill="#000000" fill-opacity="0.0" d="m0 0l392.5013 0l0 392.5013l-392.5013 0z" fill-rule="evenodd"/><path fill="#e06666" d="m284.47113 52.712593l0 0c48.72284 48.722824 48.72284 127.71812 0 176.44095q-58.99919 58.999207 -88.22046 147.77637q-29.221268 -88.77716 -88.220474 -147.77637l0 0c-48.72282 -48.722824 -48.72282 -127.71812 0 -176.44095l0 0c48.722824 -48.72282 127.718124 -48.72282 176.44093 0z" fill-rule="evenodd"/><path stroke="#990000" stroke-width="24.0" stroke-linejoin="round" stroke-linecap="butt" d="m284.47113 52.712593l0 0c48.72284 48.722824 48.72284 127.71812 0 176.44095q-58.99919 58.999207 -88.22046 147.77637q-29.221268 -88.77716 -88.220474 -147.77637l0 0c-48.72282 -48.722824 -48.72282 -127.71812 0 -176.44095l0 0c48.722824 -48.72282 127.718124 -48.72282 176.44093 0z" fill-rule="evenodd"/><path fill="#f4cccc" d="m157.35301 142.37007l0 0c0 -21.482567 17.41507 -38.89763 38.897644 -38.89763l0 0c10.316299 0 20.210068 4.0981293 27.504776 11.392853c7.2947235 7.2947235 11.392868 17.188492 11.392868 27.504776l0 0c0 21.482574 -17.41507 38.897644 -38.897644 38.897644l0 0c-21.482574 0 -38.897644 -17.41507 -38.897644 -38.897644z" fill-rule="evenodd"/><path stroke="#990000" stroke-width="12.0" stroke-linejoin="round" stroke-linecap="butt" d="m157.35301 142.37007l0 0c0 -21.482567 17.41507 -38.89763 38.897644 -38.89763l0 0c10.316299 0 20.210068 4.0981293 27.504776 11.392853c7.2947235 7.2947235 11.392868 17.188492 11.392868 27.504776l0 0c0 21.482574 -17.41507 38.897644 -38.897644 38.897644l0 0c-21.482574 0 -38.897644 -17.41507 -38.897644 -38.897644z" fill-rule="evenodd"/></g></svg>