<svg version="1.1" viewBox="0.0 0.0 481.1023622047244 480.45669291338584" fill="none" stroke="none" stroke-linecap="square" stroke-miterlimit="10" xmlns:xlink="http://www.w3.org/1999/xlink" xmlns="http://www.w3.org/2000/svg"><clipPath id="p.0"><path d="m0 0l481.10236 0l0 480.4567l-481.10236 0l0 -480.4567z" clip-rule="nonzero"/></clipPath><g clip-path="url(#p.0)"><path fill="#000000" fill-opacity="0.0" d="m0 0l481.10236 0l0 480.4567l-481.10236 0z" fill-rule="evenodd"/><path fill="#ff9900" d="m6.6981626 5.9960628l149.07086 0l0 149.07086l-149.07086 0z" fill-rule="evenodd"/><path stroke="#000000" stroke-width="8.0" stroke-linejoin="round" stroke-linecap="butt" d="m6.6981626 5.9960628l149.07086 0l0 149.07086l-149.07086 0z" fill-rule="evenodd"/><path fill="#ff0000" d="m165.4357 5.9960628l149.07086 0l0 149.07086l-149.07086 0z" fill-rule="evenodd"/><path stroke="#000000" stroke-width="8.0" stroke-linejoin="round" stroke-linecap="butt" d="m165.4357 5.9960628l149.07086 0l0 149.07086l-149.07086 0z" fill-rule="evenodd"/><path fill="#ff9900" d="m324.17322 5.9960628l149.07086 0l0 149.07086l-149.07086 0z" fill-rule="evenodd"/><path stroke="#000000" stroke-width="8.0" stroke-linejoin="round" stroke-linecap="butt" d="m324.17322 5.9960628l149.07086 0l0 149.07086l-149.07086 0z" fill-rule="evenodd"/><path fill="#ff9900" d="m6.6981626 165.11417l149.07086 0l0 149.07086l-149.07086 0z" fill-rule="evenodd"/><path stroke="#000000" stroke-width="8.0" stroke-linejoin="round" stroke-linecap="butt" d="m6.6981626 165.11417l149.07086 0l0 149.07086l-149.07086 0z" fill-rule="evenodd"/><path fill="#ff9900" d="m165.4357 165.11417l149.07086 0l0 149.07086l-149.07086 0z" fill-rule="evenodd"/><path stroke="#000000" stroke-width="8.0" stroke-linejoin="round" stroke-linecap="butt" d="m165.4357 165.11417l149.07086 0l0 149.07086l-149.07086 0z" fill-rule="evenodd"/><path fill="#ff0000" d="m324.17322 165.11417l149.07086 0l0 149.07086l-149.07086 0z" fill-rule="evenodd"/><path stroke="#000000" stroke-width="8.0" stroke-linejoin="round" stroke-linecap="butt" d="m324.17322 165.11417l149.07086 0l0 149.07086l-149.07086 0z" fill-rule="evenodd"/><path fill="#ff9900" d="m6.6981626 324.23227l149.07086 0l0 149.07089l-149.07086 0z" fill-rule="evenodd"/><path stroke="#000000" stroke-width="8.0" stroke-linejoin="round" stroke-linecap="butt" d="m6.6981626 324.23227l149.07086 0l0 149.07089l-149.07086 0z" fill-rule="evenodd"/><path fill="#ff0000" d="m165.4357 324.23227l149.07086 0l0 149.07089l-149.07086 0z" fill-rule="evenodd"/><path stroke="#000000" stroke-width="8.0" stroke-linejoin="round" stroke-linecap="butt" d="m165.4357 324.23227l149.07086 0l0 149.07089l-149.07086 0z" fill-rule="evenodd"/><path fill="#ff9900" d="m324.17322 324.23227l149.07086 0l0 149.07089l-149.07086 0z" fill-rule="evenodd"/><path stroke="#000000" stroke-width="8.0" stroke-linejoin="round" stroke-linecap="butt" d="m324.17322 324.23227l149.07086 0l0 149.07089l-149.07086 0z" fill-rule="evenodd"/></g></svg>