<svg version="1.1" viewBox="0.0 0.0 392.501312335958 392.501312335958" fill="none" stroke="none" stroke-linecap="square" stroke-miterlimit="10" xmlns:xlink="http://www.w3.org/1999/xlink" xmlns="http://www.w3.org/2000/svg"><clipPath id="p.0"><path d="m0 0l392.5013 0l0 392.5013l-392.5013 0l0 -392.5013z" clip-rule="nonzero"/></clipPath><g clip-path="url(#p.0)"><path fill="#000000" fill-opacity="0.0" d="m0 0l392.5013 0l0 392.5013l-392.5013 0z" fill-rule="evenodd"/><path fill="#000000" fill-opacity="0.0" d="m48.635662 196.16666l0 0c0 -81.520706 66.08559 -147.6063 147.6063 -147.6063l0 0c39.14763 0 76.69188 15.551338 104.37343 43.232887c27.68155 27.68155 43.23288 65.225784 43.23288 104.37341l0 0c0 81.52072 -66.0856 147.6063 -147.60631 147.6063l0 0c-81.520706 0 -147.6063 -66.08557 -147.6063 -147.6063z" fill-rule="evenodd"/><path stroke="#00ffff" stroke-width="24.0" stroke-linejoin="round" stroke-linecap="butt" d="m48.635662 196.16666l0 0c0 -81.520706 66.08559 -147.6063 147.6063 -147.6063l0 0c39.14763 0 76.69188 15.551338 104.37343 43.232887c27.68155 27.68155 43.23288 65.225784 43.23288 104.37341l0 0c0 81.52072 -66.0856 147.6063 -147.60631 147.6063l0 0c-81.520706 0 -147.6063 -66.08557 -147.6063 -147.6063z" fill-rule="evenodd"/><path fill="#00ffff" d="m205.27553 -0.51106066l0 97.00787l-18.047241 0l0 -97.00787z" fill-rule="evenodd"/><path stroke="#00ffff" stroke-width="1.0" stroke-linejoin="round" stroke-linecap="butt" d="m205.27553 -0.51106066l0 97.00787l-18.047241 0l0 -97.00787z" fill-rule="evenodd"/><path fill="#00ffff" d="m-0.01567979 187.12967l97.00787 0l0 18.047256l-97.00787 0z" fill-rule="evenodd"/><path stroke="#00ffff" stroke-width="1.0" stroke-linejoin="round" stroke-linecap="butt" d="m-0.01567979 187.12967l97.00787 0l0 18.047256l-97.00787 0z" fill-rule="evenodd"/><path fill="#00ffff" d="m205.27553 295.142l0 97.00787l-18.047241 0l0 -97.00787z" fill-rule="evenodd"/><path stroke="#00ffff" stroke-width="1.0" stroke-linejoin="round" stroke-linecap="butt" d="m205.27553 295.142l0 97.00787l-18.047241 0l0 -97.00787z" fill-rule="evenodd"/><path fill="#00ffff" d="m295.48868 186.78593l97.00787 0l0 18.047256l-97.00787 0z" fill-rule="evenodd"/><path stroke="#00ffff" stroke-width="1.0" stroke-linejoin="round" stroke-linecap="butt" d="m295.48868 186.78593l97.00787 0l0 18.047256l-97.00787 0z" fill-rule="evenodd"/></g></svg>